<svg version="1.1" id="Layer_1" xmlns="http://www.w3.org/2000/svg" xmlns:xlink="http://www.w3.org/1999/xlink" x="0px" y="0px"
	 width="100%" viewBox="46 35 366 282" enable-background="new 0 0 457 352" xml:space="preserve">
<path fill="#000000" opacity="1.000000" stroke="none" 
	d="
M327.000000,353.000000 
	C218.033524,353.000000 109.567047,353.000000 1.050288,353.000000 
	C1.050288,235.736465 1.050288,118.472900 1.050288,1.104671 
	C153.216415,1.104671 305.432922,1.104671 457.824707,1.104671 
	C457.824707,118.333115 457.824707,235.666534 457.824707,353.000000 
	C414.472992,353.000000 370.986481,353.000000 327.000000,353.000000 
M214.711456,310.241516 
	C217.195175,307.585510 219.678894,304.929504 222.411926,302.006897 
	C225.986145,305.730469 228.081497,312.737946 235.236664,308.902710 
	C235.236664,300.685455 235.236664,292.619812 235.236664,284.473694 
	C232.541641,284.473694 230.493088,284.473694 227.960831,284.473694 
	C227.960831,288.677765 227.960831,292.509796 227.960831,297.421753 
	C225.329056,294.443268 223.460358,292.328369 221.382034,289.976227 
	C219.530151,292.608093 217.984848,294.804230 216.439545,297.000366 
	C216.023224,296.866272 215.606888,296.732178 215.190552,296.598053 
	C214.992554,292.865051 214.794556,289.132019 214.590286,285.281006 
	C212.215118,285.281006 210.161499,285.281006 208.461975,285.281006 
	C208.461975,293.688019 208.461975,301.767181 208.461975,310.270905 
	C210.718140,310.270905 212.333008,310.270905 214.711456,310.241516 
M315.351288,231.954102 
	C313.747650,233.356140 312.144012,234.758194 310.267365,236.398911 
	C314.103790,239.388428 317.259125,241.847183 321.591858,245.223450 
	C317.040771,245.223450 314.135834,245.223450 310.939423,245.223450 
	C311.663361,248.487823 312.298035,251.349792 313.194153,255.390610 
	C308.855804,252.286438 305.752502,250.065964 302.397339,247.665298 
	C300.945648,249.751038 299.840668,251.338593 298.541168,253.205658 
	C305.362335,258.216705 311.882935,263.006958 319.270386,268.434052 
	C320.676056,265.445618 322.641144,263.075836 322.701904,260.658173 
	C322.770264,257.941559 321.119232,255.181717 320.114563,252.132095 
	C325.970245,251.657181 332.676117,254.427200 334.335510,245.765152 
	C328.247955,241.288635 322.088226,236.759048 315.351288,231.954102 
M114.040077,247.551239 
	C112.453423,248.940994 110.866768,250.330734 109.023430,251.945328 
	C110.593132,253.788391 111.844795,255.258026 113.343025,257.017151 
	C116.391800,254.527466 119.137886,252.284943 121.883972,250.042435 
	C122.301544,253.619034 121.970245,256.705383 120.899353,259.509247 
	C119.129936,264.141968 120.813629,267.030914 124.963608,269.477386 
	C131.150848,264.133179 137.277191,258.841553 143.691177,253.301514 
	C142.051788,251.524048 140.649979,250.004150 139.126968,248.352859 
	C135.850098,251.022736 132.997482,253.346954 130.037720,255.758469 
	C128.183670,248.889542 137.028580,241.671036 127.749496,235.712234 
	C123.323784,239.527725 118.942642,243.304794 114.040077,247.551239 
M260.112610,54.279324 
	C257.906158,59.438080 255.699707,64.596832 253.320435,70.159653 
	C255.714096,71.062729 257.630615,71.785789 259.645355,72.545914 
	C261.068237,69.511177 262.249115,66.992622 263.603058,64.104958 
	C266.360077,65.291473 268.731110,66.311890 271.454163,67.483788 
	C270.293457,70.678284 269.252594,73.542908 268.159882,76.550293 
	C270.421417,77.467529 272.220551,78.197235 274.338531,79.056252 
	C277.710968,71.277130 280.931396,63.848633 284.352478,55.957329 
	C282.056885,55.010403 280.172089,54.232944 278.111176,53.382832 
	C276.656250,56.340794 275.440369,58.812778 274.040802,61.658199 
	C271.181976,60.358799 268.713409,59.236794 266.190918,58.090260 
	C267.440277,54.970715 268.470306,52.398746 269.630096,49.502884 
	C267.369110,48.557465 265.601166,47.818199 263.481384,46.931805 
	C262.333527,49.424232 261.375122,51.505348 260.112610,54.279324 
M102.188881,215.351425 
	C107.123726,214.009689 112.058563,212.667953 116.916641,211.347092 
	C116.257927,200.771698 112.589653,194.514969 106.100395,192.570740 
	C101.474266,191.184708 96.050186,192.901688 93.092270,196.688385 
	C89.242035,201.617447 89.491135,210.160278 93.837364,217.492798 
	C96.311829,216.875229 98.868210,216.237213 102.188881,215.351425 
M306.194244,107.562508 
	C309.359039,107.651176 313.247284,108.951698 315.541443,107.582039 
	C320.682312,104.512894 325.030304,100.115669 329.894287,96.099777 
	C327.982056,94.076523 326.662415,92.680252 325.140411,91.069862 
	C321.476990,94.199883 318.163269,96.945251 314.951660,99.805260 
	C312.801605,101.719933 310.656799,103.348602 308.137939,100.567108 
	C305.658356,97.829010 307.259888,95.801765 309.509308,93.873184 
	C312.982605,90.895271 316.365143,87.811516 319.947418,84.629440 
	C318.211121,82.759865 316.896851,81.344704 315.384491,79.716240 
	C311.878143,82.721710 308.697144,85.372749 305.599731,88.118164 
	C297.886383,94.954979 297.893158,100.219719 306.194244,107.562508 
M116.784996,141.847458 
	C116.139610,141.222153 115.393379,139.978363 114.864037,140.064682 
	C107.347809,141.290298 99.841217,142.598587 92.377647,144.110733 
	C89.734573,144.646255 88.194366,150.712067 90.388367,152.152496 
	C97.370422,156.736481 104.560844,161.003067 112.109016,165.662842 
	C112.856277,161.965302 114.511086,159.541672 111.111168,156.497452 
	C109.946800,155.454895 112.158653,150.287689 113.291656,147.173630 
	C113.913811,145.463654 115.501366,144.104904 116.784996,141.847458 
M336.162598,188.436676 
	C334.092590,187.235352 332.022583,186.034027 329.607178,184.632248 
	C328.850220,188.174179 327.339172,190.599915 330.659760,193.631714 
	C331.884277,194.749741 330.498688,201.743500 328.803864,202.447662 
	C324.573395,204.205338 325.530029,207.059875 324.729797,210.505859 
	C333.458588,208.922012 341.606018,207.616745 349.634949,205.790298 
	C350.769775,205.532135 351.769806,202.793518 352.001404,201.090027 
	C352.166809,199.873535 351.301788,197.942398 350.274231,197.238007 
	C345.907471,194.244659 341.308624,191.589935 336.162598,188.436676 
M185.008484,280.794037 
	C183.798370,277.692291 180.929764,276.518005 178.242844,278.024445 
	C175.491943,279.566772 168.413727,277.630432 168.429504,274.977203 
	C168.458038,270.181091 164.922318,270.717010 161.723007,269.161835 
	C161.362656,277.169708 161.143143,284.584839 160.638229,291.980438 
	C160.444702,294.815308 161.085434,296.412384 163.895050,297.677368 
	C166.888870,299.025269 168.442581,297.869202 170.298660,295.910187 
	C174.977722,290.971619 179.787979,286.157379 185.008484,280.794037 
M219.101517,50.178829 
	C217.818741,49.838821 216.401825,49.731091 215.292557,49.090595 
	C214.273178,48.501999 213.585083,47.339657 212.751038,46.430073 
	C213.906708,46.244514 215.058319,45.937538 216.218903,45.898540 
	C218.674942,45.816021 221.135666,45.873405 224.453430,45.873405 
	C220.618484,39.971851 216.069885,38.414730 210.695038,40.145847 
	C207.114166,41.299171 205.149841,43.808937 205.271973,47.585484 
	C205.448364,53.038910 209.259766,54.761742 213.873108,55.517391 
	C214.035339,55.543968 214.227966,55.570385 214.343063,55.670055 
	C215.231339,56.439274 216.103989,57.226540 216.981476,58.008221 
	C215.759705,58.354115 214.552963,58.914303 213.313019,59.001396 
	C210.712189,59.184082 208.093872,59.117935 205.482742,59.153957 
	C208.448318,65.022049 212.877701,66.437851 217.544830,65.071541 
	C220.125687,64.315987 223.123322,61.896149 224.105179,59.482838 
	C225.617020,55.766983 223.481293,52.448418 219.101517,50.178829 
M326.196564,149.500656 
	C326.870575,150.328674 327.468719,151.796219 328.230255,151.886551 
	C336.539764,152.872269 344.874847,153.642593 353.268585,154.478058 
	C353.528870,148.678970 351.122437,146.712463 346.119507,146.904877 
	C342.690643,147.036743 339.231506,146.380280 335.785889,146.076233 
	C338.751984,142.887772 341.564667,140.496124 344.755127,138.826126 
	C349.459076,136.363922 348.922821,133.303375 346.450439,129.109802 
	C340.136749,133.706924 334.135071,138.326569 327.855713,142.531479 
	C325.181030,144.322556 324.936829,146.182175 326.196564,149.500656 
M111.084793,100.412689 
	C117.511040,105.516251 123.937279,110.619820 130.838776,116.100830 
	C134.523254,111.076355 137.778976,106.636566 141.239380,101.917648 
	C139.277710,100.634140 137.832275,99.688393 136.261185,98.660446 
	C134.050644,101.453491 132.137589,103.870667 130.070221,106.482811 
	C124.744019,102.668060 119.813133,99.136444 114.639465,95.430946 
	C113.343582,97.149406 112.359016,98.455017 111.084793,100.412689 
M279.354309,296.461975 
	C280.473877,295.080627 281.593414,293.699249 282.712952,292.317871 
	C283.131500,290.796204 285.010406,288.992218 284.885345,288.840576 
	C283.013367,286.570221 280.929382,284.457825 278.709381,282.521454 
	C278.519775,282.356079 277.003998,283.695496 276.122589,284.360046 
	C276.020081,284.437317 276.086884,284.755402 275.986633,284.816528 
	C275.506470,285.109222 275.013641,285.396851 274.492401,285.603210 
	C273.334076,286.061737 272.156128,286.470642 270.986176,286.899780 
	C271.667175,288.142487 272.348175,289.385193 272.880157,290.355957 
	C272.677124,291.680969 272.460999,293.091583 272.244843,294.502167 
	C273.590118,294.443054 274.976471,294.162170 276.266571,294.401062 
	C277.159424,294.566376 277.919434,295.448822 279.354309,296.461975 
M168.286987,57.249737 
	C167.208954,57.838081 166.130936,58.426422 166.083542,58.452290 
	C163.736298,57.820648 162.287613,57.430809 160.838928,57.040970 
	C160.613800,58.587048 160.388672,60.133125 160.207031,61.380512 
	C159.186584,62.145638 158.131378,62.936813 157.076187,63.727989 
	C158.125549,64.582962 159.219116,65.390495 160.207092,66.311333 
	C160.767426,66.833580 161.160156,67.537537 161.618530,68.166832 
	C162.186493,68.946564 162.646912,70.251419 163.332230,70.380264 
	C164.103897,70.525322 165.134506,69.699272 165.939407,69.134491 
	C166.600128,68.670868 166.997238,67.789055 167.686417,67.418289 
	C168.764786,66.838142 169.991058,66.532928 171.154678,66.111252 
	C170.478378,64.859970 169.802078,63.608692 169.125778,62.357410 
	C169.390778,62.345959 169.655777,62.334511 169.920761,62.323063 
	C169.582016,60.733013 169.243286,59.142963 168.286987,57.249737 
z"/>
<path fill="#EAE9EB" opacity="1.000000" stroke="none" 
	d="
M214.329651,310.256226 
	C212.333008,310.270905 210.718140,310.270905 208.461975,310.270905 
	C208.461975,301.767181 208.461975,293.688019 208.461975,285.281006 
	C210.161499,285.281006 212.215118,285.281006 214.590286,285.281006 
	C214.794556,289.132019 214.992554,292.865051 215.190552,296.598053 
	C215.606888,296.732178 216.023224,296.866272 216.439545,297.000366 
	C217.984848,294.804230 219.530151,292.608093 221.382034,289.976227 
	C223.460358,292.328369 225.329056,294.443268 227.960831,297.421753 
	C227.960831,292.509796 227.960831,288.677765 227.960831,284.473694 
	C230.493088,284.473694 232.541641,284.473694 235.236664,284.473694 
	C235.236664,292.619812 235.236664,300.685455 235.236664,308.902710 
	C228.081497,312.737946 225.986145,305.730469 222.411926,302.006897 
	C219.678894,304.929504 217.195175,307.585510 214.329651,310.256226 
z"/>
<path fill="#EDEDEE" opacity="1.000000" stroke="none" 
	d="
M315.639893,232.091797 
	C322.088226,236.759048 328.247955,241.288635 334.335510,245.765152 
	C332.676117,254.427200 325.970245,251.657181 320.114563,252.132095 
	C321.119232,255.181717 322.770264,257.941559 322.701904,260.658173 
	C322.641144,263.075836 320.676056,265.445618 319.270386,268.434052 
	C311.882935,263.006958 305.362335,258.216705 298.541168,253.205658 
	C299.840668,251.338593 300.945648,249.751038 302.397339,247.665298 
	C305.752502,250.065964 308.855804,252.286438 313.194153,255.390610 
	C312.298035,251.349792 311.663361,248.487823 310.939423,245.223450 
	C314.135834,245.223450 317.040771,245.223450 321.591858,245.223450 
	C317.259125,241.847183 314.103790,239.388428 310.267365,236.398911 
	C312.144012,234.758194 313.747650,233.356140 315.639893,232.091797 
z"/>
<path fill="#EDECEE" opacity="1.000000" stroke="none" 
	d="
M114.300789,247.316559 
	C118.942642,243.304794 123.323784,239.527725 127.749496,235.712234 
	C137.028580,241.671036 128.183670,248.889542 130.037720,255.758469 
	C132.997482,253.346954 135.850098,251.022736 139.126968,248.352859 
	C140.649979,250.004150 142.051788,251.524048 143.691177,253.301514 
	C137.277191,258.841553 131.150848,264.133179 124.963608,269.477386 
	C120.813629,267.030914 119.129936,264.141968 120.899353,259.509247 
	C121.970245,256.705383 122.301544,253.619034 121.883972,250.042435 
	C119.137886,252.284943 116.391800,254.527466 113.343025,257.017151 
	C111.844795,255.258026 110.593132,253.788391 109.023430,251.945328 
	C110.866768,250.330734 112.453423,248.940994 114.300789,247.316559 
z"/>
<path fill="#E9E9EA" opacity="1.000000" stroke="none" 
	d="
M260.264648,53.932892 
	C261.375122,51.505348 262.333527,49.424232 263.481384,46.931805 
	C265.601166,47.818199 267.369110,48.557465 269.630096,49.502884 
	C268.470306,52.398746 267.440277,54.970715 266.190918,58.090260 
	C268.713409,59.236794 271.181976,60.358799 274.040802,61.658199 
	C275.440369,58.812778 276.656250,56.340794 278.111176,53.382832 
	C280.172089,54.232944 282.056885,55.010403 284.352478,55.957329 
	C280.931396,63.848633 277.710968,71.277130 274.338531,79.056252 
	C272.220551,78.197235 270.421417,77.467529 268.159882,76.550293 
	C269.252594,73.542908 270.293457,70.678284 271.454163,67.483788 
	C268.731110,66.311890 266.360077,65.291473 263.603058,64.104958 
	C262.249115,66.992622 261.068237,69.511177 259.645355,72.545914 
	C257.630615,71.785789 255.714096,71.062729 253.320435,70.159653 
	C255.699707,64.596832 257.906158,59.438080 260.264648,53.932892 
z"/>
<path fill="#EDEDEE" opacity="1.000000" stroke="none" 
	d="
M101.806732,215.475311 
	C98.868210,216.237213 96.311829,216.875229 93.837364,217.492798 
	C89.491135,210.160278 89.242035,201.617447 93.092270,196.688385 
	C96.050186,192.901688 101.474266,191.184708 106.100395,192.570740 
	C112.589653,194.514969 116.257927,200.771698 116.916641,211.347092 
	C112.058563,212.667953 107.123726,214.009689 101.806732,215.475311 
M99.573105,200.039932 
	C96.224876,202.532486 96.171516,205.601868 97.868332,209.454590 
	C101.832222,208.351166 105.549248,207.316452 109.252136,206.285675 
	C107.581268,199.794708 105.891754,198.629822 99.573105,200.039932 
z"/>
<path fill="#EAEAEB" opacity="1.000000" stroke="none" 
	d="
M305.877808,107.358238 
	C297.893158,100.219719 297.886383,94.954979 305.599731,88.118164 
	C308.697144,85.372749 311.878143,82.721710 315.384491,79.716240 
	C316.896851,81.344704 318.211121,82.759865 319.947418,84.629440 
	C316.365143,87.811516 312.982605,90.895271 309.509308,93.873184 
	C307.259888,95.801765 305.658356,97.829010 308.137939,100.567108 
	C310.656799,103.348602 312.801605,101.719933 314.951660,99.805260 
	C318.163269,96.945251 321.476990,94.199883 325.140411,91.069862 
	C326.662415,92.680252 327.982056,94.076523 329.894287,96.099777 
	C325.030304,100.115669 320.682312,104.512894 315.541443,107.582039 
	C313.247284,108.951698 309.359039,107.651176 305.877808,107.358238 
z"/>
<path fill="#EEEEEF" opacity="1.000000" stroke="none" 
	d="
M116.719315,142.217621 
	C115.501366,144.104904 113.913811,145.463654 113.291656,147.173630 
	C112.158653,150.287689 109.946800,155.454895 111.111168,156.497452 
	C114.511086,159.541672 112.856277,161.965302 112.109016,165.662842 
	C104.560844,161.003067 97.370422,156.736481 90.388367,152.152496 
	C88.194366,150.712067 89.734573,144.646255 92.377647,144.110733 
	C99.841217,142.598587 107.347809,141.290298 114.864037,140.064682 
	C115.393379,139.978363 116.139610,141.222153 116.719315,142.217621 
z"/>
<path fill="#EEEDEF" opacity="1.000000" stroke="none" 
	d="
M336.478577,188.624115 
	C341.308624,191.589935 345.907471,194.244659 350.274231,197.238007 
	C351.301788,197.942398 352.166809,199.873535 352.001404,201.090027 
	C351.769806,202.793518 350.769775,205.532135 349.634949,205.790298 
	C341.606018,207.616745 333.458588,208.922012 324.729797,210.505859 
	C325.530029,207.059875 324.573395,204.205338 328.803864,202.447662 
	C330.498688,201.743500 331.884277,194.749741 330.659760,193.631714 
	C327.339172,190.599915 328.850220,188.174179 329.607178,184.632248 
	C332.022583,186.034027 334.092590,187.235352 336.478577,188.624115 
z"/>
<path fill="#EFEFF0" opacity="1.000000" stroke="none" 
	d="
M184.777069,281.043671 
	C179.787979,286.157379 174.977722,290.971619 170.298660,295.910187 
	C168.442581,297.869202 166.888870,299.025269 163.895050,297.677368 
	C161.085434,296.412384 160.444702,294.815308 160.638229,291.980438 
	C161.143143,284.584839 161.362656,277.169708 161.723007,269.161835 
	C164.922318,270.717010 168.458038,270.181091 168.429504,274.977203 
	C168.413727,277.630432 175.491943,279.566772 178.242844,278.024445 
	C180.929764,276.518005 183.798370,277.692291 184.777069,281.043671 
z"/>
<path fill="#EDEDEE" opacity="1.000000" stroke="none" 
	d="
M219.456238,50.339272 
	C223.481293,52.448418 225.617020,55.766983 224.105179,59.482838 
	C223.123322,61.896149 220.125687,64.315987 217.544830,65.071541 
	C212.877701,66.437851 208.448318,65.022049 205.482742,59.153957 
	C208.093872,59.117935 210.712189,59.184082 213.313019,59.001396 
	C214.552963,58.914303 215.759705,58.354115 216.981476,58.008217 
	C216.103989,57.226540 215.231339,56.439274 214.343063,55.670055 
	C214.227966,55.570385 214.035339,55.543968 213.873108,55.517391 
	C209.259766,54.761742 205.448364,53.038910 205.271973,47.585484 
	C205.149841,43.808937 207.114166,41.299171 210.695038,40.145847 
	C216.069885,38.414730 220.618484,39.971851 224.453430,45.873405 
	C221.135666,45.873405 218.674942,45.816021 216.218903,45.898540 
	C215.058319,45.937538 213.906708,46.244514 212.751038,46.430077 
	C213.585083,47.339657 214.273178,48.501999 215.292557,49.090595 
	C216.401825,49.731091 217.818741,49.838821 219.456238,50.339272 
z"/>
<path fill="#ECECED" opacity="1.000000" stroke="none" 
	d="
M326.097260,149.130066 
	C324.936829,146.182175 325.181030,144.322556 327.855713,142.531479 
	C334.135071,138.326569 340.136749,133.706924 346.450439,129.109802 
	C348.922821,133.303375 349.459076,136.363922 344.755127,138.826126 
	C341.564667,140.496124 338.751984,142.887772 335.785889,146.076233 
	C339.231506,146.380280 342.690643,147.036743 346.119507,146.904877 
	C351.122437,146.712463 353.528870,148.678970 353.268585,154.478058 
	C344.874847,153.642593 336.539764,152.872269 328.230255,151.886551 
	C327.468719,151.796219 326.870575,150.328674 326.097260,149.130066 
z"/>
<path fill="#ECEBEC" opacity="1.000000" stroke="none" 
	d="
M111.229630,100.086655 
	C112.359016,98.455017 113.343582,97.149406 114.639465,95.430946 
	C119.813133,99.136444 124.744019,102.668060 130.070221,106.482811 
	C132.137589,103.870667 134.050644,101.453491 136.261185,98.660446 
	C137.832275,99.688393 139.277710,100.634140 141.239380,101.917648 
	C137.778976,106.636566 134.523254,111.076355 130.838776,116.100830 
	C123.937279,110.619820 117.511040,105.516251 111.229630,100.086655 
z"/>
<path fill="#D8D7D9" opacity="1.000000" stroke="none" 
	d="
M279.046570,296.236389 
	C277.919434,295.448822 277.159424,294.566376 276.266571,294.401062 
	C274.976471,294.162170 273.590118,294.443054 272.244873,294.502167 
	C272.460999,293.091583 272.677124,291.680969 272.880157,290.355957 
	C272.348175,289.385193 271.667175,288.142487 270.986176,286.899780 
	C272.156128,286.470642 273.334076,286.061737 274.492401,285.603210 
	C275.013641,285.396851 275.506470,285.109222 275.986633,284.816528 
	C276.086884,284.755402 276.020081,284.437317 276.122589,284.360046 
	C277.003998,283.695496 278.519775,282.356079 278.709381,282.521454 
	C280.929382,284.457825 283.013367,286.570221 284.885345,288.840576 
	C285.010406,288.992218 283.131500,290.796204 282.712952,292.317871 
	C281.593414,293.699249 280.473877,295.080627 279.046570,296.236389 
z"/>
<path fill="#DADADC" opacity="1.000000" stroke="none" 
	d="
M168.595764,57.401325 
	C169.243286,59.142963 169.582016,60.733013 169.920761,62.323063 
	C169.655777,62.334511 169.390778,62.345959 169.125778,62.357410 
	C169.802078,63.608692 170.478378,64.859970 171.154678,66.111252 
	C169.991058,66.532928 168.764786,66.838142 167.686417,67.418289 
	C166.997238,67.789055 166.600128,68.670868 165.939407,69.134491 
	C165.134506,69.699272 164.103897,70.525322 163.332230,70.380264 
	C162.646912,70.251419 162.186493,68.946564 161.618530,68.166832 
	C161.160156,67.537537 160.767426,66.833580 160.207092,66.311333 
	C159.219116,65.390495 158.125549,64.582962 157.076187,63.727989 
	C158.131378,62.936813 159.186584,62.145638 160.207031,61.380512 
	C160.388672,60.133125 160.613800,58.587048 160.838928,57.040970 
	C162.287613,57.430809 163.736298,57.820648 166.083542,58.452290 
	C166.130936,58.426422 167.208954,57.838081 168.595764,57.401325 
z"/>
<path fill="#1C1625" opacity="1.000000" stroke="none" 
	d="
M99.921082,199.844803 
	C105.891754,198.629822 107.581268,199.794708 109.252136,206.285675 
	C105.549248,207.316452 101.832222,208.351166 97.868332,209.454590 
	C96.171516,205.601868 96.224876,202.532486 99.921082,199.844803 
z"/>
</svg>